<?xml version="1.0" encoding="UTF-8"?><svg id="a" xmlns="http://www.w3.org/2000/svg" width="100" height="100" viewBox="0 0 100 100"><path d="m67.88,78.88c-.15,2.16-1.96,3.84-4.11,3.84l-33.01,8.5c-1.1,0-2.15-.43-2.92-1.21l-15.3-11.17h-6.54v-16.51h33.01c2.28,0,4.13,1.84,4.13,4.13,0,2.29-1.85,4.13-4.13,4.13h-12.02s10.16,8.54,10.16,8.54l27.19-4.63c2.14.31,3.71,2.27,3.53,4.38Z" fill="none" stroke="#469de5" stroke-linecap="round" stroke-linejoin="round" stroke-width="1.5"/><path d="m82.69,22.73h6.47c1.94,0,3.52,1.57,3.52,3.52v44.72c0,1.94-1.57,3.52-3.52,3.52h-52.22" fill="none" stroke="#469de5" stroke-linecap="round" stroke-linejoin="round" stroke-width="1.5"/><path d="m15.63,56.41v-30.17c0-1.94,1.57-3.52,3.52-3.52h55.34" fill="none" stroke="#469de5" stroke-linecap="round" stroke-linejoin="round" stroke-width="1.5"/><polyline points="15.63 56.41 31.63 45.86 48.69 52.04 91.84 10.67" fill="none" stroke="#469de5" stroke-linecap="round" stroke-linejoin="round" stroke-width="1.5"/><polyline points="84.97 10.67 91.84 10.67 91.84 17.53" fill="none" stroke="#469de5" stroke-linecap="round" stroke-linejoin="round" stroke-width="1.5"/><line x1="31.63" y1="50.9" x2="31.63" y2="61.17" fill="none" stroke="#469de5" stroke-linecap="round" stroke-linejoin="round" stroke-width="1.5"/><line x1="15.58" y1="58.05" x2="15.58" y2="61.17" fill="none" stroke="#469de5" stroke-linecap="round" stroke-linejoin="round" stroke-width="1.5"/><line x1="47.67" y1="55.79" x2="47.67" y2="72.45" fill="none" stroke="#469de5" stroke-linecap="round" stroke-linejoin="round" stroke-width="1.5"/><line x1="63.72" y1="65.24" x2="63.72" y2="72.45" fill="none" stroke="#469de5" stroke-linecap="round" stroke-linejoin="round" stroke-width="1.5"/><line x1="63.72" y1="42.63" x2="63.72" y2="44.84" fill="none" stroke="#469de5" stroke-linecap="round" stroke-linejoin="round" stroke-width="1.5"/><line x1="79.77" y1="64.83" x2="79.77" y2="72.45" fill="none" stroke="#469de5" stroke-linecap="round" stroke-linejoin="round" stroke-width="1.5"/><line x1="79.77" y1="26.83" x2="79.77" y2="44.95" fill="none" stroke="#469de5" stroke-linecap="round" stroke-linejoin="round" stroke-width="1.5"/><circle cx="71.65" cy="55.05" r="12.71" fill="none" stroke="#469de5" stroke-linecap="round" stroke-linejoin="round" stroke-width="1.5"/><path d="m67.99,58.04c0,.83.37,1.52,1.1,2.04.74.53,1.7.79,2.9.79,1.12,0,2.03-.25,2.72-.75.69-.5,1.04-1.16,1.04-1.98,0-.53-.12-.98-.35-1.35-.23-.37-.6-.69-1.12-.96s-1.21-.5-2.1-.7c-1.33-.28-2.56-.82-3.08-1.26-.52-.43-.78-1.03-.78-1.78s.33-1.39.99-1.89c.66-.49,1.52-.74,2.59-.74,1.15,0,2.08.27,2.78.8.7.54,1.05,1.26,1.05,2.17" fill="none" stroke="#469de5" stroke-linecap="round" stroke-linejoin="round" stroke-width="1.5"/><polyline points="71.88 63.9 71.88 62.59 71.88 60.93" fill="none" stroke="#469de5" stroke-linecap="round" stroke-linejoin="round" stroke-width="1.5"/><polyline points="71.88 49.4 71.88 48.12 71.88 46.07" fill="none" stroke="#469de5" stroke-linecap="round" stroke-linejoin="round" stroke-width="1.5"/></svg>