<?xml version="1.0" encoding="UTF-8"?><svg id="c" xmlns="http://www.w3.org/2000/svg" width="325" height="325" viewBox="0 0 325 325"><path d="m162.5,101.26c-33.77,0-61.24,27.47-61.24,61.24s27.47,61.24,61.24,61.24,61.24-27.47,61.24-61.24-27.47-61.24-61.24-61.24Zm0,106.12c-24.75,0-44.88-20.13-44.88-44.88s20.13-44.88,44.88-44.88,44.88,20.13,44.88,44.88-20.13,44.88-44.88,44.88Zm0-73.57c-15.82,0-28.69,12.87-28.69,28.69s12.87,28.69,28.69,28.69,28.69-12.87,28.69-28.69-12.87-28.69-28.69-28.69Zm0,41.02c-6.8,0-12.33-5.53-12.33-12.33s5.53-12.33,12.33-12.33,12.33,5.53,12.33,12.33-5.53,12.33-12.33,12.33Zm0-104.82c-51,0-92.49,41.49-92.49,92.49s41.49,92.49,92.49,92.49,92.49-41.49,92.49-92.49-41.49-92.49-92.49-92.49Zm0,168.62c-41.98,0-76.13-34.15-76.13-76.13s34.15-76.13,76.13-76.13,76.13,34.15,76.13,76.13-34.15,76.13-76.13,76.13Zm0-200.77c-68.73,0-124.64,55.91-124.64,124.64s55.92,124.64,124.64,124.64,124.64-55.92,124.64-124.64-55.92-124.64-124.64-124.64Zm0,232.93c-59.71,0-108.29-48.58-108.29-108.29s48.58-108.29,108.29-108.29,108.29,48.58,108.29,108.29-48.58,108.29-108.29,108.29Zm0-263.58C76.87,7.21,7.21,76.87,7.21,162.5s69.66,155.29,155.29,155.29,155.29-69.66,155.29-155.29S248.13,7.21,162.5,7.21Zm0,294.22c-76.61,0-138.93-62.32-138.93-138.93S85.89,23.57,162.5,23.57s138.93,62.32,138.93,138.93-62.32,138.93-138.93,138.93Z" fill="#f8f8f8" stroke-width="0"/></svg>